<svg width="25" height="12" viewBox="0 0 25 12" fill="none" xmlns="http://www.w3.org/2000/svg">
<path fill-rule="evenodd" clip-rule="evenodd" d="M3.58944 0.159973H18.4106C19.6587 0.159973 20.1113 0.289929 20.5676 0.533959C21.0239 0.777989 21.382 1.13609 21.626 1.59239C21.87 2.04869 22 2.50129 22 3.74941V8.07053C22 9.31866 21.87 9.77126 21.626 10.2276C21.382 10.6839 21.0239 11.042 20.5676 11.286C20.1113 11.53 19.6587 11.66 18.4106 11.66H3.58944C2.34131 11.66 1.88871 11.53 1.43242 11.286C0.97612 11.042 0.618016 10.6839 0.373986 10.2276C0.129956 9.77126 0 9.31866 0 8.07053V3.74941C0 2.50129 0.129956 2.04869 0.373986 1.59239C0.618016 1.13609 0.97612 0.777989 1.43242 0.533959C1.88871 0.289929 2.34131 0.159973 3.58944 0.159973ZM3.58944 1.15997C2.60246 1.15997 2.2579 1.22651 1.90401 1.41577C1.62199 1.5666 1.40663 1.78196 1.2558 2.06399C1.06654 2.41788 1 2.76243 1 3.74941V8.07053C1 9.05751 1.06654 9.40207 1.2558 9.75596C1.40663 10.038 1.62199 10.2533 1.90401 10.4042C2.2579 10.5934 2.60246 10.66 3.58944 10.66H18.4106C19.3975 10.66 19.7421 10.5934 20.096 10.4042C20.378 10.2533 20.5934 10.038 20.7442 9.75596C20.9335 9.40207 21 9.05751 21 8.07053V3.74941C21 2.76243 20.9335 2.41788 20.7442 2.06399C20.5934 1.78196 20.378 1.5666 20.096 1.41577C19.7421 1.22651 19.3975 1.15997 18.4106 1.15997H3.58944ZM24.5 5.84998C24.5 7.08655 23 7.84998 23 7.84998V3.84998C23 3.84998 24.5 4.6134 24.5 5.84998Z" fill="black" fill-opacity="0.36"/>
<rect x="2" y="2.07666" width="18" height="7.66667" rx="1.6" fill="black"/>
</svg>
