<svg width="20" height="20" viewBox="0 0 20 20" fill="none" xmlns="http://www.w3.org/2000/svg">
<path d="M10 2.5C11.375 2.5 12.5 3.625 12.5 5C12.5 6.375 11.375 7.5 10 7.5C8.625 7.5 7.5 6.375 7.5 5C7.5 3.625 8.625 2.5 10 2.5ZM10 15C13.375 15 17.25 16.6125 17.5 17.5H2.5C2.7875 16.6 6.6375 15 10 15ZM10 0C7.2375 0 5 2.2375 5 5C5 7.7625 7.2375 10 10 10C12.7625 10 15 7.7625 15 5C15 2.2375 12.7625 0 10 0ZM10 12.5C6.6625 12.5 0 14.175 0 17.5V20H20V17.5C20 14.175 13.3375 12.5 10 12.5Z" fill="#707480"/>
</svg>
