<svg width="16" height="12" viewBox="0 0 16 12" fill="none" xmlns="http://www.w3.org/2000/svg">
<path fill-rule="evenodd" clip-rule="evenodd" d="M8.3004 2.69632C10.5348 2.69642 12.6838 3.55497 14.3031 5.09453C14.4251 5.21339 14.62 5.21189 14.7401 5.09117L15.9058 3.91476C15.9666 3.85352 16.0005 3.77059 16 3.68429C15.9995 3.598 15.9646 3.51546 15.9031 3.45494C11.6527 -0.618364 4.94737 -0.618364 0.697047 3.45494C0.635477 3.51541 0.600547 3.59793 0.599983 3.68422C0.599408 3.77052 0.633259 3.85348 0.694022 3.91476L1.86003 5.09117C1.98004 5.21207 2.17511 5.21358 2.29698 5.09453C3.91655 3.55487 6.06577 2.69632 8.3004 2.69632ZM8.3004 6.52371C9.52806 6.52363 10.7119 6.97995 11.6219 7.80399C11.745 7.92094 11.9389 7.9184 12.0589 7.79827L13.2232 6.62186C13.2845 6.56015 13.3185 6.47644 13.3177 6.38945C13.3168 6.30247 13.281 6.21947 13.2185 6.15902C10.4473 3.58128 6.15582 3.58128 3.38466 6.15902C3.32206 6.21947 3.28635 6.30251 3.28553 6.38952C3.2847 6.47654 3.31885 6.56024 3.38028 6.62186L4.54427 7.79827C4.66425 7.9184 4.85814 7.92094 4.98122 7.80399C5.89063 6.98049 7.07354 6.52422 8.3004 6.52371ZM10.5379 9.33131C10.6002 9.2702 10.6345 9.1861 10.6327 9.09887C10.6309 9.01164 10.5932 8.92901 10.5285 8.87049C9.2423 7.78259 7.35849 7.78259 6.07226 8.87049C6.00751 8.92896 5.96974 9.01157 5.9679 9.0988C5.96605 9.18603 6.00029 9.27015 6.06251 9.33131L8.07688 11.3638C8.13592 11.4236 8.2164 11.4572 8.3004 11.4572C8.38439 11.4572 8.46487 11.4236 8.52391 11.3638L10.5379 9.33131Z" fill="black"/>
</svg>
